# xmcd
#
# Track frame offsets:
#	150
#	13904
#	27149
#	42606
#	61413
#	81852
#	94766
#	112131
#	128150
#	147247
#	157690
#	173127
#	183431
#	194579
#	213509
#
# Disc length: 3105 seconds
#
# Revision: 0
# Processed by: cddbd v1.5.2PL0 Copyright (c) Steve Scherf et al.
# Submitted via: EasyCDDAExtractor 10.0.1.1
#
DISCID=d40c1f0f
DTITLE=Texas Lightning - Meanwhile back at the ranch
DYEAR=2006
DGENRE=Country
TTITLE0=No No Never
TTITLE1=Bad case of loving you
TTITLE2=Like a virgin
TTITLE3=Kiss
TTITLE4=Over the mountains
TTITLE5=C'est la vie
TTITLE6=Highway to hell
TTITLE7=Dancing queen
TTITLE8=Man in the mirror
TTITLE9=Norvegian Wood
TTITLE10=Smoke Smoke Smoke (that cigarette)
TTITLE11=Walking after midnight
TTITLE12=Raindrops keep falling on my head
TTITLE13=Walk on the wild side
TTITLE14=Blue Bayou
EXTD=
EXTT0=
EXTT1=
EXTT2=
EXTT3=
EXTT4=
EXTT5=
EXTT6=
EXTT7=
EXTT8=
EXTT9=
EXTT10=
EXTT11=
EXTT12=
EXTT13=
EXTT14=
PLAYORDER=
